<?xml version="1.0" encoding="utf-8" standalone="no"?>
<!DOCTYPE svg PUBLIC "-//W3C//DTD SVG 1.1//EN"
  "http://www.w3.org/Graphics/SVG/1.1/DTD/svg11.dtd">
<svg height="345.6pt" version="1.1" viewBox="0 0 460.8 345.6" width="460.8pt" xmlns="http://www.w3.org/2000/svg" xmlns:xlink="http://www.w3.org/1999/xlink">
 <metadata>
  <rdf:RDF xmlns:cc="http://creativecommons.org/ns#" xmlns:dc="http://purl.org/dc/elements/1.1/" xmlns:rdf="http://www.w3.org/1999/02/22-rdf-syntax-ns#">
   <cc:Work>
    <dc:type rdf:resource="http://purl.org/dc/dcmitype/StillImage"/>
    <dc:date>2021-06-08T20:13:15.255867</dc:date>
    <dc:format>image/svg+xml</dc:format>
    <dc:creator>
     <cc:Agent>
      <dc:title>Matplotlib v3.4.2, https://matplotlib.org/</dc:title>
     </cc:Agent>
    </dc:creator>
   </cc:Work>
  </rdf:RDF>
 </metadata>
 <defs>
  <style type="text/css">*{stroke-linecap:butt;stroke-linejoin:round;}</style>
 </defs>
 <g id="figure_1">
  <g id="patch_1">
   <path d="M 0 345.6 
L 460.8 345.6 
L 460.8 0 
L 0 0 
z
" style="fill:#ffffff;"/>
  </g>
  <g id="axes_1">
   <g id="patch_2">
    <path d="M 57.6 307.584 
L 414.72 307.584 
L 414.72 81.3888 
L 57.6 81.3888 
z
" style="fill:#ffffff;"/>
   </g>
   <g id="matplotlib.axis_1">
    <g id="xtick_1">
     <g id="line2d_1">
      <path clip-path="url(#pdd464f8f54)" d="M 57.6 307.584 
L 57.6 81.3888 
" style="fill:none;stroke:#b0b0b0;stroke-linecap:square;stroke-width:0.8;"/>
     </g>
     <g id="line2d_2">
      <defs>
       <path d="M 0 0 
L 0 3.5 
" id="m88573ba587" style="stroke:#000000;stroke-width:0.8;"/>
      </defs>
      <g>
       <use style="stroke:#000000;stroke-width:0.8;" x="57.6" xlink:href="#m88573ba587" y="307.584"/>
      </g>
     </g>
     <g id="text_1">
      <!-- 0 -->
      <g transform="translate(54.41875 322.182437)scale(0.1 -0.1)">
       <defs>
        <path d="M 2034 4250 
Q 1547 4250 1301 3770 
Q 1056 3291 1056 2328 
Q 1056 1369 1301 889 
Q 1547 409 2034 409 
Q 2525 409 2770 889 
Q 3016 1369 3016 2328 
Q 3016 3291 2770 3770 
Q 2525 4250 2034 4250 
z
M 2034 4750 
Q 2819 4750 3233 4129 
Q 3647 3509 3647 2328 
Q 3647 1150 3233 529 
Q 2819 -91 2034 -91 
Q 1250 -91 836 529 
Q 422 1150 422 2328 
Q 422 3509 836 4129 
Q 1250 4750 2034 4750 
z
" id="DejaVuSans-30" transform="scale(0.015625)"/>
       </defs>
       <use xlink:href="#DejaVuSans-30"/>
      </g>
     </g>
    </g>
    <g id="xtick_2">
     <g id="line2d_3">
      <path clip-path="url(#pdd464f8f54)" d="M 105.216 307.584 
L 105.216 81.3888 
" style="fill:none;stroke:#b0b0b0;stroke-linecap:square;stroke-width:0.8;"/>
     </g>
     <g id="line2d_4">
      <g>
       <use style="stroke:#000000;stroke-width:0.8;" x="105.216" xlink:href="#m88573ba587" y="307.584"/>
      </g>
     </g>
     <g id="text_2">
      <!-- 200 -->
      <g transform="translate(95.67225 322.182437)scale(0.1 -0.1)">
       <defs>
        <path d="M 1228 531 
L 3431 531 
L 3431 0 
L 469 0 
L 469 531 
Q 828 903 1448 1529 
Q 2069 2156 2228 2338 
Q 2531 2678 2651 2914 
Q 2772 3150 2772 3378 
Q 2772 3750 2511 3984 
Q 2250 4219 1831 4219 
Q 1534 4219 1204 4116 
Q 875 4013 500 3803 
L 500 4441 
Q 881 4594 1212 4672 
Q 1544 4750 1819 4750 
Q 2544 4750 2975 4387 
Q 3406 4025 3406 3419 
Q 3406 3131 3298 2873 
Q 3191 2616 2906 2266 
Q 2828 2175 2409 1742 
Q 1991 1309 1228 531 
z
" id="DejaVuSans-32" transform="scale(0.015625)"/>
       </defs>
       <use xlink:href="#DejaVuSans-32"/>
       <use x="63.623047" xlink:href="#DejaVuSans-30"/>
       <use x="127.246094" xlink:href="#DejaVuSans-30"/>
      </g>
     </g>
    </g>
    <g id="xtick_3">
     <g id="line2d_5">
      <path clip-path="url(#pdd464f8f54)" d="M 152.832 307.584 
L 152.832 81.3888 
" style="fill:none;stroke:#b0b0b0;stroke-linecap:square;stroke-width:0.8;"/>
     </g>
     <g id="line2d_6">
      <g>
       <use style="stroke:#000000;stroke-width:0.8;" x="152.832" xlink:href="#m88573ba587" y="307.584"/>
      </g>
     </g>
     <g id="text_3">
      <!-- 400 -->
      <g transform="translate(143.28825 322.182437)scale(0.1 -0.1)">
       <defs>
        <path d="M 2419 4116 
L 825 1625 
L 2419 1625 
L 2419 4116 
z
M 2253 4666 
L 3047 4666 
L 3047 1625 
L 3713 1625 
L 3713 1100 
L 3047 1100 
L 3047 0 
L 2419 0 
L 2419 1100 
L 313 1100 
L 313 1709 
L 2253 4666 
z
" id="DejaVuSans-34" transform="scale(0.015625)"/>
       </defs>
       <use xlink:href="#DejaVuSans-34"/>
       <use x="63.623047" xlink:href="#DejaVuSans-30"/>
       <use x="127.246094" xlink:href="#DejaVuSans-30"/>
      </g>
     </g>
    </g>
    <g id="xtick_4">
     <g id="line2d_7">
      <path clip-path="url(#pdd464f8f54)" d="M 200.448 307.584 
L 200.448 81.3888 
" style="fill:none;stroke:#b0b0b0;stroke-linecap:square;stroke-width:0.8;"/>
     </g>
     <g id="line2d_8">
      <g>
       <use style="stroke:#000000;stroke-width:0.8;" x="200.448" xlink:href="#m88573ba587" y="307.584"/>
      </g>
     </g>
     <g id="text_4">
      <!-- 600 -->
      <g transform="translate(190.90425 322.182437)scale(0.1 -0.1)">
       <defs>
        <path d="M 2113 2584 
Q 1688 2584 1439 2293 
Q 1191 2003 1191 1497 
Q 1191 994 1439 701 
Q 1688 409 2113 409 
Q 2538 409 2786 701 
Q 3034 994 3034 1497 
Q 3034 2003 2786 2293 
Q 2538 2584 2113 2584 
z
M 3366 4563 
L 3366 3988 
Q 3128 4100 2886 4159 
Q 2644 4219 2406 4219 
Q 1781 4219 1451 3797 
Q 1122 3375 1075 2522 
Q 1259 2794 1537 2939 
Q 1816 3084 2150 3084 
Q 2853 3084 3261 2657 
Q 3669 2231 3669 1497 
Q 3669 778 3244 343 
Q 2819 -91 2113 -91 
Q 1303 -91 875 529 
Q 447 1150 447 2328 
Q 447 3434 972 4092 
Q 1497 4750 2381 4750 
Q 2619 4750 2861 4703 
Q 3103 4656 3366 4563 
z
" id="DejaVuSans-36" transform="scale(0.015625)"/>
       </defs>
       <use xlink:href="#DejaVuSans-36"/>
       <use x="63.623047" xlink:href="#DejaVuSans-30"/>
       <use x="127.246094" xlink:href="#DejaVuSans-30"/>
      </g>
     </g>
    </g>
    <g id="xtick_5">
     <g id="line2d_9">
      <path clip-path="url(#pdd464f8f54)" d="M 248.064 307.584 
L 248.064 81.3888 
" style="fill:none;stroke:#b0b0b0;stroke-linecap:square;stroke-width:0.8;"/>
     </g>
     <g id="line2d_10">
      <g>
       <use style="stroke:#000000;stroke-width:0.8;" x="248.064" xlink:href="#m88573ba587" y="307.584"/>
      </g>
     </g>
     <g id="text_5">
      <!-- 800 -->
      <g transform="translate(238.52025 322.182437)scale(0.1 -0.1)">
       <defs>
        <path d="M 2034 2216 
Q 1584 2216 1326 1975 
Q 1069 1734 1069 1313 
Q 1069 891 1326 650 
Q 1584 409 2034 409 
Q 2484 409 2743 651 
Q 3003 894 3003 1313 
Q 3003 1734 2745 1975 
Q 2488 2216 2034 2216 
z
M 1403 2484 
Q 997 2584 770 2862 
Q 544 3141 544 3541 
Q 544 4100 942 4425 
Q 1341 4750 2034 4750 
Q 2731 4750 3128 4425 
Q 3525 4100 3525 3541 
Q 3525 3141 3298 2862 
Q 3072 2584 2669 2484 
Q 3125 2378 3379 2068 
Q 3634 1759 3634 1313 
Q 3634 634 3220 271 
Q 2806 -91 2034 -91 
Q 1263 -91 848 271 
Q 434 634 434 1313 
Q 434 1759 690 2068 
Q 947 2378 1403 2484 
z
M 1172 3481 
Q 1172 3119 1398 2916 
Q 1625 2713 2034 2713 
Q 2441 2713 2670 2916 
Q 2900 3119 2900 3481 
Q 2900 3844 2670 4047 
Q 2441 4250 2034 4250 
Q 1625 4250 1398 4047 
Q 1172 3844 1172 3481 
z
" id="DejaVuSans-38" transform="scale(0.015625)"/>
       </defs>
       <use xlink:href="#DejaVuSans-38"/>
       <use x="63.623047" xlink:href="#DejaVuSans-30"/>
       <use x="127.246094" xlink:href="#DejaVuSans-30"/>
      </g>
     </g>
    </g>
    <g id="xtick_6">
     <g id="line2d_11">
      <path clip-path="url(#pdd464f8f54)" d="M 295.68 307.584 
L 295.68 81.3888 
" style="fill:none;stroke:#b0b0b0;stroke-linecap:square;stroke-width:0.8;"/>
     </g>
     <g id="line2d_12">
      <g>
       <use style="stroke:#000000;stroke-width:0.8;" x="295.68" xlink:href="#m88573ba587" y="307.584"/>
      </g>
     </g>
     <g id="text_6">
      <!-- 1000 -->
      <g transform="translate(282.955 322.182437)scale(0.1 -0.1)">
       <defs>
        <path d="M 794 531 
L 1825 531 
L 1825 4091 
L 703 3866 
L 703 4441 
L 1819 4666 
L 2450 4666 
L 2450 531 
L 3481 531 
L 3481 0 
L 794 0 
L 794 531 
z
" id="DejaVuSans-31" transform="scale(0.015625)"/>
       </defs>
       <use xlink:href="#DejaVuSans-31"/>
       <use x="63.623047" xlink:href="#DejaVuSans-30"/>
       <use x="127.246094" xlink:href="#DejaVuSans-30"/>
       <use x="190.869141" xlink:href="#DejaVuSans-30"/>
      </g>
     </g>
    </g>
    <g id="xtick_7">
     <g id="line2d_13">
      <path clip-path="url(#pdd464f8f54)" d="M 343.296 307.584 
L 343.296 81.3888 
" style="fill:none;stroke:#b0b0b0;stroke-linecap:square;stroke-width:0.8;"/>
     </g>
     <g id="line2d_14">
      <g>
       <use style="stroke:#000000;stroke-width:0.8;" x="343.296" xlink:href="#m88573ba587" y="307.584"/>
      </g>
     </g>
     <g id="text_7">
      <!-- 1200 -->
      <g transform="translate(330.571 322.182437)scale(0.1 -0.1)">
       <use xlink:href="#DejaVuSans-31"/>
       <use x="63.623047" xlink:href="#DejaVuSans-32"/>
       <use x="127.246094" xlink:href="#DejaVuSans-30"/>
       <use x="190.869141" xlink:href="#DejaVuSans-30"/>
      </g>
     </g>
    </g>
    <g id="xtick_8">
     <g id="line2d_15">
      <path clip-path="url(#pdd464f8f54)" d="M 390.912 307.584 
L 390.912 81.3888 
" style="fill:none;stroke:#b0b0b0;stroke-linecap:square;stroke-width:0.8;"/>
     </g>
     <g id="line2d_16">
      <g>
       <use style="stroke:#000000;stroke-width:0.8;" x="390.912" xlink:href="#m88573ba587" y="307.584"/>
      </g>
     </g>
     <g id="text_8">
      <!-- 1400 -->
      <g transform="translate(378.187 322.182437)scale(0.1 -0.1)">
       <use xlink:href="#DejaVuSans-31"/>
       <use x="63.623047" xlink:href="#DejaVuSans-34"/>
       <use x="127.246094" xlink:href="#DejaVuSans-30"/>
       <use x="190.869141" xlink:href="#DejaVuSans-30"/>
      </g>
     </g>
    </g>
    <g id="text_9">
     <!-- Time (sec.) -->
     <g transform="translate(208.41625 335.860562)scale(0.1 -0.1)">
      <defs>
       <path d="M -19 4666 
L 3928 4666 
L 3928 4134 
L 2272 4134 
L 2272 0 
L 1638 0 
L 1638 4134 
L -19 4134 
L -19 4666 
z
" id="DejaVuSans-54" transform="scale(0.015625)"/>
       <path d="M 603 3500 
L 1178 3500 
L 1178 0 
L 603 0 
L 603 3500 
z
M 603 4863 
L 1178 4863 
L 1178 4134 
L 603 4134 
L 603 4863 
z
" id="DejaVuSans-69" transform="scale(0.015625)"/>
       <path d="M 3328 2828 
Q 3544 3216 3844 3400 
Q 4144 3584 4550 3584 
Q 5097 3584 5394 3201 
Q 5691 2819 5691 2113 
L 5691 0 
L 5113 0 
L 5113 2094 
Q 5113 2597 4934 2840 
Q 4756 3084 4391 3084 
Q 3944 3084 3684 2787 
Q 3425 2491 3425 1978 
L 3425 0 
L 2847 0 
L 2847 2094 
Q 2847 2600 2669 2842 
Q 2491 3084 2119 3084 
Q 1678 3084 1418 2786 
Q 1159 2488 1159 1978 
L 1159 0 
L 581 0 
L 581 3500 
L 1159 3500 
L 1159 2956 
Q 1356 3278 1631 3431 
Q 1906 3584 2284 3584 
Q 2666 3584 2933 3390 
Q 3200 3197 3328 2828 
z
" id="DejaVuSans-6d" transform="scale(0.015625)"/>
       <path d="M 3597 1894 
L 3597 1613 
L 953 1613 
Q 991 1019 1311 708 
Q 1631 397 2203 397 
Q 2534 397 2845 478 
Q 3156 559 3463 722 
L 3463 178 
Q 3153 47 2828 -22 
Q 2503 -91 2169 -91 
Q 1331 -91 842 396 
Q 353 884 353 1716 
Q 353 2575 817 3079 
Q 1281 3584 2069 3584 
Q 2775 3584 3186 3129 
Q 3597 2675 3597 1894 
z
M 3022 2063 
Q 3016 2534 2758 2815 
Q 2500 3097 2075 3097 
Q 1594 3097 1305 2825 
Q 1016 2553 972 2059 
L 3022 2063 
z
" id="DejaVuSans-65" transform="scale(0.015625)"/>
       <path id="DejaVuSans-20" transform="scale(0.015625)"/>
       <path d="M 1984 4856 
Q 1566 4138 1362 3434 
Q 1159 2731 1159 2009 
Q 1159 1288 1364 580 
Q 1569 -128 1984 -844 
L 1484 -844 
Q 1016 -109 783 600 
Q 550 1309 550 2009 
Q 550 2706 781 3412 
Q 1013 4119 1484 4856 
L 1984 4856 
z
" id="DejaVuSans-28" transform="scale(0.015625)"/>
       <path d="M 2834 3397 
L 2834 2853 
Q 2591 2978 2328 3040 
Q 2066 3103 1784 3103 
Q 1356 3103 1142 2972 
Q 928 2841 928 2578 
Q 928 2378 1081 2264 
Q 1234 2150 1697 2047 
L 1894 2003 
Q 2506 1872 2764 1633 
Q 3022 1394 3022 966 
Q 3022 478 2636 193 
Q 2250 -91 1575 -91 
Q 1294 -91 989 -36 
Q 684 19 347 128 
L 347 722 
Q 666 556 975 473 
Q 1284 391 1588 391 
Q 1994 391 2212 530 
Q 2431 669 2431 922 
Q 2431 1156 2273 1281 
Q 2116 1406 1581 1522 
L 1381 1569 
Q 847 1681 609 1914 
Q 372 2147 372 2553 
Q 372 3047 722 3315 
Q 1072 3584 1716 3584 
Q 2034 3584 2315 3537 
Q 2597 3491 2834 3397 
z
" id="DejaVuSans-73" transform="scale(0.015625)"/>
       <path d="M 3122 3366 
L 3122 2828 
Q 2878 2963 2633 3030 
Q 2388 3097 2138 3097 
Q 1578 3097 1268 2742 
Q 959 2388 959 1747 
Q 959 1106 1268 751 
Q 1578 397 2138 397 
Q 2388 397 2633 464 
Q 2878 531 3122 666 
L 3122 134 
Q 2881 22 2623 -34 
Q 2366 -91 2075 -91 
Q 1284 -91 818 406 
Q 353 903 353 1747 
Q 353 2603 823 3093 
Q 1294 3584 2113 3584 
Q 2378 3584 2631 3529 
Q 2884 3475 3122 3366 
z
" id="DejaVuSans-63" transform="scale(0.015625)"/>
       <path d="M 684 794 
L 1344 794 
L 1344 0 
L 684 0 
L 684 794 
z
" id="DejaVuSans-2e" transform="scale(0.015625)"/>
       <path d="M 513 4856 
L 1013 4856 
Q 1481 4119 1714 3412 
Q 1947 2706 1947 2009 
Q 1947 1309 1714 600 
Q 1481 -109 1013 -844 
L 513 -844 
Q 928 -128 1133 580 
Q 1338 1288 1338 2009 
Q 1338 2731 1133 3434 
Q 928 4138 513 4856 
z
" id="DejaVuSans-29" transform="scale(0.015625)"/>
      </defs>
      <use xlink:href="#DejaVuSans-54"/>
      <use x="57.958984" xlink:href="#DejaVuSans-69"/>
      <use x="85.742188" xlink:href="#DejaVuSans-6d"/>
      <use x="183.154297" xlink:href="#DejaVuSans-65"/>
      <use x="244.677734" xlink:href="#DejaVuSans-20"/>
      <use x="276.464844" xlink:href="#DejaVuSans-28"/>
      <use x="315.478516" xlink:href="#DejaVuSans-73"/>
      <use x="367.578125" xlink:href="#DejaVuSans-65"/>
      <use x="429.101562" xlink:href="#DejaVuSans-63"/>
      <use x="484.082031" xlink:href="#DejaVuSans-2e"/>
      <use x="515.869141" xlink:href="#DejaVuSans-29"/>
     </g>
    </g>
   </g>
   <g id="matplotlib.axis_2">
    <g id="ytick_1">
     <g id="line2d_17">
      <path clip-path="url(#pdd464f8f54)" d="M 57.6 307.584 
L 414.72 307.584 
" style="fill:none;stroke:#b0b0b0;stroke-linecap:square;stroke-width:0.8;"/>
     </g>
     <g id="line2d_18">
      <defs>
       <path d="M 0 0 
L -3.5 0 
" id="ma985033c33" style="stroke:#000000;stroke-width:0.8;"/>
      </defs>
      <g>
       <use style="stroke:#000000;stroke-width:0.8;" x="57.6" xlink:href="#ma985033c33" y="307.584"/>
      </g>
     </g>
     <g id="text_10">
      <!-- 400 -->
      <g transform="translate(31.5125 311.383219)scale(0.1 -0.1)">
       <use xlink:href="#DejaVuSans-34"/>
       <use x="63.623047" xlink:href="#DejaVuSans-30"/>
       <use x="127.246094" xlink:href="#DejaVuSans-30"/>
      </g>
     </g>
    </g>
    <g id="ytick_2">
     <g id="line2d_19">
      <path clip-path="url(#pdd464f8f54)" d="M 57.6 269.8848 
L 414.72 269.8848 
" style="fill:none;stroke:#b0b0b0;stroke-linecap:square;stroke-width:0.8;"/>
     </g>
     <g id="line2d_20">
      <g>
       <use style="stroke:#000000;stroke-width:0.8;" x="57.6" xlink:href="#ma985033c33" y="269.8848"/>
      </g>
     </g>
     <g id="text_11">
      <!-- 600 -->
      <g transform="translate(31.5125 273.684019)scale(0.1 -0.1)">
       <use xlink:href="#DejaVuSans-36"/>
       <use x="63.623047" xlink:href="#DejaVuSans-30"/>
       <use x="127.246094" xlink:href="#DejaVuSans-30"/>
      </g>
     </g>
    </g>
    <g id="ytick_3">
     <g id="line2d_21">
      <path clip-path="url(#pdd464f8f54)" d="M 57.6 232.1856 
L 414.72 232.1856 
" style="fill:none;stroke:#b0b0b0;stroke-linecap:square;stroke-width:0.8;"/>
     </g>
     <g id="line2d_22">
      <g>
       <use style="stroke:#000000;stroke-width:0.8;" x="57.6" xlink:href="#ma985033c33" y="232.1856"/>
      </g>
     </g>
     <g id="text_12">
      <!-- 800 -->
      <g transform="translate(31.5125 235.984819)scale(0.1 -0.1)">
       <use xlink:href="#DejaVuSans-38"/>
       <use x="63.623047" xlink:href="#DejaVuSans-30"/>
       <use x="127.246094" xlink:href="#DejaVuSans-30"/>
      </g>
     </g>
    </g>
    <g id="ytick_4">
     <g id="line2d_23">
      <path clip-path="url(#pdd464f8f54)" d="M 57.6 194.4864 
L 414.72 194.4864 
" style="fill:none;stroke:#b0b0b0;stroke-linecap:square;stroke-width:0.8;"/>
     </g>
     <g id="line2d_24">
      <g>
       <use style="stroke:#000000;stroke-width:0.8;" x="57.6" xlink:href="#ma985033c33" y="194.4864"/>
      </g>
     </g>
     <g id="text_13">
      <!-- 1000 -->
      <g transform="translate(25.15 198.285619)scale(0.1 -0.1)">
       <use xlink:href="#DejaVuSans-31"/>
       <use x="63.623047" xlink:href="#DejaVuSans-30"/>
       <use x="127.246094" xlink:href="#DejaVuSans-30"/>
       <use x="190.869141" xlink:href="#DejaVuSans-30"/>
      </g>
     </g>
    </g>
    <g id="ytick_5">
     <g id="line2d_25">
      <path clip-path="url(#pdd464f8f54)" d="M 57.6 156.7872 
L 414.72 156.7872 
" style="fill:none;stroke:#b0b0b0;stroke-linecap:square;stroke-width:0.8;"/>
     </g>
     <g id="line2d_26">
      <g>
       <use style="stroke:#000000;stroke-width:0.8;" x="57.6" xlink:href="#ma985033c33" y="156.7872"/>
      </g>
     </g>
     <g id="text_14">
      <!-- 1200 -->
      <g transform="translate(25.15 160.586419)scale(0.1 -0.1)">
       <use xlink:href="#DejaVuSans-31"/>
       <use x="63.623047" xlink:href="#DejaVuSans-32"/>
       <use x="127.246094" xlink:href="#DejaVuSans-30"/>
       <use x="190.869141" xlink:href="#DejaVuSans-30"/>
      </g>
     </g>
    </g>
    <g id="ytick_6">
     <g id="line2d_27">
      <path clip-path="url(#pdd464f8f54)" d="M 57.6 119.088 
L 414.72 119.088 
" style="fill:none;stroke:#b0b0b0;stroke-linecap:square;stroke-width:0.8;"/>
     </g>
     <g id="line2d_28">
      <g>
       <use style="stroke:#000000;stroke-width:0.8;" x="57.6" xlink:href="#ma985033c33" y="119.088"/>
      </g>
     </g>
     <g id="text_15">
      <!-- 1400 -->
      <g transform="translate(25.15 122.887219)scale(0.1 -0.1)">
       <use xlink:href="#DejaVuSans-31"/>
       <use x="63.623047" xlink:href="#DejaVuSans-34"/>
       <use x="127.246094" xlink:href="#DejaVuSans-30"/>
       <use x="190.869141" xlink:href="#DejaVuSans-30"/>
      </g>
     </g>
    </g>
    <g id="ytick_7">
     <g id="line2d_29">
      <path clip-path="url(#pdd464f8f54)" d="M 57.6 81.3888 
L 414.72 81.3888 
" style="fill:none;stroke:#b0b0b0;stroke-linecap:square;stroke-width:0.8;"/>
     </g>
     <g id="line2d_30">
      <g>
       <use style="stroke:#000000;stroke-width:0.8;" x="57.6" xlink:href="#ma985033c33" y="81.3888"/>
      </g>
     </g>
     <g id="text_16">
      <!-- 1600 -->
      <g transform="translate(25.15 85.188019)scale(0.1 -0.1)">
       <use xlink:href="#DejaVuSans-31"/>
       <use x="63.623047" xlink:href="#DejaVuSans-36"/>
       <use x="127.246094" xlink:href="#DejaVuSans-30"/>
       <use x="190.869141" xlink:href="#DejaVuSans-30"/>
      </g>
     </g>
    </g>
    <g id="text_17">
     <!-- CO2 (ppm) -->
     <g transform="translate(19.070312 221.804369)rotate(-90)scale(0.1 -0.1)">
      <defs>
       <path d="M 4122 4306 
L 4122 3641 
Q 3803 3938 3442 4084 
Q 3081 4231 2675 4231 
Q 1875 4231 1450 3742 
Q 1025 3253 1025 2328 
Q 1025 1406 1450 917 
Q 1875 428 2675 428 
Q 3081 428 3442 575 
Q 3803 722 4122 1019 
L 4122 359 
Q 3791 134 3420 21 
Q 3050 -91 2638 -91 
Q 1578 -91 968 557 
Q 359 1206 359 2328 
Q 359 3453 968 4101 
Q 1578 4750 2638 4750 
Q 3056 4750 3426 4639 
Q 3797 4528 4122 4306 
z
" id="DejaVuSans-43" transform="scale(0.015625)"/>
       <path d="M 2522 4238 
Q 1834 4238 1429 3725 
Q 1025 3213 1025 2328 
Q 1025 1447 1429 934 
Q 1834 422 2522 422 
Q 3209 422 3611 934 
Q 4013 1447 4013 2328 
Q 4013 3213 3611 3725 
Q 3209 4238 2522 4238 
z
M 2522 4750 
Q 3503 4750 4090 4092 
Q 4678 3434 4678 2328 
Q 4678 1225 4090 567 
Q 3503 -91 2522 -91 
Q 1538 -91 948 565 
Q 359 1222 359 2328 
Q 359 3434 948 4092 
Q 1538 4750 2522 4750 
z
" id="DejaVuSans-4f" transform="scale(0.015625)"/>
       <path d="M 1159 525 
L 1159 -1331 
L 581 -1331 
L 581 3500 
L 1159 3500 
L 1159 2969 
Q 1341 3281 1617 3432 
Q 1894 3584 2278 3584 
Q 2916 3584 3314 3078 
Q 3713 2572 3713 1747 
Q 3713 922 3314 415 
Q 2916 -91 2278 -91 
Q 1894 -91 1617 61 
Q 1341 213 1159 525 
z
M 3116 1747 
Q 3116 2381 2855 2742 
Q 2594 3103 2138 3103 
Q 1681 3103 1420 2742 
Q 1159 2381 1159 1747 
Q 1159 1113 1420 752 
Q 1681 391 2138 391 
Q 2594 391 2855 752 
Q 3116 1113 3116 1747 
z
" id="DejaVuSans-70" transform="scale(0.015625)"/>
      </defs>
      <use xlink:href="#DejaVuSans-43"/>
      <use x="69.824219" xlink:href="#DejaVuSans-4f"/>
      <use x="148.535156" xlink:href="#DejaVuSans-32"/>
      <use x="212.158203" xlink:href="#DejaVuSans-20"/>
      <use x="243.945312" xlink:href="#DejaVuSans-28"/>
      <use x="282.958984" xlink:href="#DejaVuSans-70"/>
      <use x="346.435547" xlink:href="#DejaVuSans-70"/>
      <use x="409.912109" xlink:href="#DejaVuSans-6d"/>
      <use x="507.324219" xlink:href="#DejaVuSans-29"/>
     </g>
    </g>
   </g>
   <g id="line2d_31">
    <path clip-path="url(#pdd464f8f54)" d="M 57.6 112.302144 
L 58.073742 114.864142 
L 58.553473 268.245662 
L 59.023404 304.395919 
L 59.50698 306.623159 
L 59.985613 307.138503 
L 60.462867 307.371988 
L 61.424913 307.494115 
L 61.888217 307.486645 
L 62.378242 307.149471 
L 62.845839 305.932964 
L 63.753385 302.065564 
L 64.286585 301.849563 
L 64.747238 304.172266 
L 65.164026 305.013745 
L 65.729845 303.740384 
L 66.121629 301.027585 
L 66.662659 290.660136 
L 67.596571 266.883116 
L 71.423495 191.308432 
L 71.869275 185.438499 
L 72.865463 177.850488 
L 73.806075 172.209624 
L 74.747266 168.47223 
L 75.196891 167.509489 
L 76.175622 166.927615 
L 77.0855 166.465861 
L 77.547464 166.103714 
L 79.050422 164.373479 
L 79.93728 163.79485 
L 80.42581 163.666466 
L 81.36169 163.074764 
L 82.740944 162.463686 
L 83.816916 161.202081 
L 84.736329 159.613858 
L 85.234458 159.376234 
L 85.650048 159.835197 
L 86.131478 161.84435 
L 86.624264 166.632813 
L 87.087075 174.548018 
L 87.579546 202.860258 
L 88.07044 253.684034 
L 88.559538 282.89413 
L 89.010833 293.064508 
L 89.498825 298.339418 
L 90.460457 302.681857 
L 91.415355 305.224915 
L 91.877816 306.017808 
L 92.355946 306.525328 
L 93.319866 307.08908 
L 94.261887 307.341606 
L 96.197877 307.495725 
L 97.633181 307.442204 
L 98.107624 307.201027 
L 98.538671 306.667199 
L 99.038427 305.413262 
L 99.492948 303.66588 
L 100.455104 298.526259 
L 106.677838 262.184324 
L 107.097143 261.380453 
L 107.593223 264.493401 
L 108.567816 284.987278 
L 109.027496 287.964037 
L 109.513582 287.519532 
L 109.983041 288.511689 
L 110.459253 291.055019 
L 111.878791 300.370866 
L 112.363235 302.529348 
L 112.837103 303.943963 
L 113.30606 304.853865 
L 114.28148 305.922279 
L 115.247355 306.487016 
L 116.253474 306.818936 
L 117.102506 306.927288 
L 118.040725 306.823522 
L 119.001873 306.338431 
L 119.485051 306.047821 
L 119.99333 305.602167 
L 120.940414 303.99577 
L 122.747277 300.508969 
L 125.179542 294.967767 
L 126.614052 291.467437 
L 127.606459 290.345114 
L 128.09809 289.986436 
L 129.001492 289.873455 
L 129.474604 289.477509 
L 135.70436 279.499676 
L 136.185473 280.421309 
L 136.629454 284.84375 
L 138.05779 301.965845 
L 138.535714 304.194164 
L 139.024877 305.125483 
L 139.989221 306.239411 
L 140.932935 306.771234 
L 141.865791 307.085607 
L 143.759488 307.372466 
L 145.69161 307.424993 
L 147.613023 307.190469 
L 149.884543 306.578955 
L 150.417407 306.587846 
L 151.386579 306.899066 
L 152.327934 307.314865 
L 153.305513 307.479683 
L 156.149913 307.557906 
L 161.861922 307.524947 
L 162.823166 307.349826 
L 163.773852 306.942327 
L 166.176816 305.607511 
L 169.090886 304.111566 
L 169.463609 304.257415 
L 169.974927 305.065762 
L 170.444927 306.121576 
L 170.912483 306.85469 
L 171.397625 307.220841 
L 172.344749 307.460941 
L 174.267923 307.551101 
L 182.848984 307.55563 
L 186.190305 307.317308 
L 189.954198 306.838929 
L 191.844716 306.484929 
L 201.388019 305.791661 
L 203.212915 305.60527 
L 207.143653 305.263042 
L 208.541779 304.970289 
L 209.019142 304.700458 
L 209.960815 303.557744 
L 210.918531 302.249038 
L 211.887449 301.521546 
L 212.861418 301.23718 
L 214.307811 301.07566 
L 217.536986 301.39703 
L 218.59361 301.908162 
L 220.455261 302.989772 
L 222.847382 305.87403 
L 223.734454 306.336444 
L 225.235418 306.711455 
L 227.577317 307.170898 
L 229.957454 307.449943 
L 232.830738 307.55045 
L 241.830674 307.529388 
L 249.021939 307.31701 
L 252.732666 306.970632 
L 254.675363 306.906338 
L 257.061681 306.944471 
L 260.878001 307.313533 
L 263.289406 307.229858 
L 273.284926 307.564491 
L 273.284926 307.564491 
" style="fill:none;stroke:#000000;stroke-linecap:square;stroke-width:1.5;"/>
   </g>
   <g id="line2d_32">
    <path clip-path="url(#pdd464f8f54)" d="M 57.6 112.302144 
L 58.073742 117.175275 
L 58.553473 290.419396 
L 59.023404 305.354406 
L 59.50698 306.86177 
L 59.985613 307.239552 
L 60.929012 307.47401 
L 61.888217 307.482401 
L 62.378242 307.290857 
L 62.845839 306.71213 
L 63.262298 305.874246 
L 64.286585 303.498949 
L 64.747238 303.616108 
L 65.729845 306.412889 
L 66.121629 306.458655 
L 66.662659 305.324555 
L 67.107152 303.840944 
L 67.596571 300.584794 
L 68.086604 289.066853 
L 69.022843 258.972844 
L 69.967525 238.935129 
L 70.911001 226.92416 
L 71.869275 218.338346 
L 72.865463 208.435482 
L 74.252801 197.423429 
L 75.680516 188.983749 
L 77.547464 176.002637 
L 78.55158 170.629352 
L 79.456972 167.189241 
L 79.93728 165.869697 
L 80.42581 165.078638 
L 82.447249 160.146901 
L 82.740944 160.751367 
L 83.417936 171.747529 
L 83.816916 188.824357 
L 84.736329 273.424385 
L 85.234458 287.975273 
L 85.650048 293.445342 
L 86.131478 296.480247 
L 86.624264 297.700379 
L 87.579546 295.881754 
L 88.559538 287.996157 
L 89.010833 290.464873 
L 89.987031 300.940687 
L 90.460457 303.924514 
L 90.92685 305.235101 
L 91.415355 306.114351 
L 91.877816 306.639105 
L 92.827704 307.228174 
L 93.783661 307.450459 
L 95.691469 307.554172 
L 98.538671 307.547731 
L 99.038427 307.420056 
L 99.492948 307.060413 
L 99.981603 306.265018 
L 100.455104 305.101418 
L 101.389995 301.869461 
L 102.346927 297.58907 
L 103.281641 292.556621 
L 104.743459 282.73672 
L 107.097143 265.945978 
L 107.593223 264.477887 
L 108.048576 266.456877 
L 109.513582 297.043892 
L 109.983041 297.910183 
L 110.459253 295.492564 
L 110.933245 295.319456 
L 111.878791 301.919625 
L 112.363235 304.024208 
L 112.837103 305.346677 
L 113.30606 306.113212 
L 113.775953 306.507303 
L 114.72602 306.952254 
L 115.630992 307.13143 
L 117.527739 307.147031 
L 118.040725 307.051351 
L 119.001873 306.556482 
L 119.99333 305.807045 
L 121.441582 303.896336 
L 122.411593 302.398052 
L 123.387275 300.577085 
L 124.82901 297.344193 
L 126.614052 293.214268 
L 128.09809 290.336502 
L 128.549188 289.846217 
L 129.474604 289.913154 
L 130.463893 288.873634 
L 131.425335 287.985716 
L 132.400628 286.479921 
L 133.203759 284.442854 
L 134.72511 279.90927 
L 135.152212 279.337708 
L 135.70436 282.032054 
L 136.185473 290.471576 
L 136.629454 296.227485 
L 137.098437 298.162978 
L 139.024877 303.218653 
L 139.989221 305.112919 
L 140.450324 305.679197 
L 141.414592 306.408115 
L 142.348395 306.781704 
L 143.759488 307.068834 
L 145.112869 307.139572 
L 146.174265 307.022468 
L 148.104456 306.519672 
L 151.907079 305.098361 
L 152.327934 305.132421 
L 152.808201 305.514639 
L 153.305513 306.104223 
L 153.767682 306.340412 
L 154.253886 305.937033 
L 154.724598 305.23498 
L 155.197761 305.197899 
L 156.659509 306.584802 
L 157.610847 306.940878 
L 159.489391 307.144485 
L 160.898415 306.993501 
L 161.861922 306.629624 
L 163.292401 305.721623 
L 165.233684 304.257644 
L 167.124429 303.138662 
L 169.463609 301.803287 
L 169.974927 301.712077 
L 170.444927 302.160835 
L 171.397625 304.501448 
L 171.867937 304.837159 
L 172.344749 304.696864 
L 172.830217 305.187548 
L 173.78202 306.41307 
L 174.267923 306.859304 
L 175.203982 307.254136 
L 176.650537 307.445854 
L 180.426932 307.474309 
L 182.848984 307.344906 
L 185.213643 306.912924 
L 191.844716 305.468111 
L 194.301321 305.441405 
L 195.639371 305.902129 
L 196.13257 305.831828 
L 196.699565 305.370481 
L 197.99053 303.841473 
L 199.065282 303.118859 
L 199.399599 302.972559 
L 201.01636 301.876756 
L 201.388019 301.714798 
L 204.37308 301.511218 
L 205.188834 301.332664 
L 205.629384 301.391357 
L 207.562668 302.111881 
L 209.019142 302.990767 
L 209.491179 302.91495 
L 210.441882 302.322802 
L 212.37794 300.810661 
L 213.765239 300.109029 
L 214.307811 299.979745 
L 216.150869 300.122717 
L 219.04569 300.706877 
L 220.455261 301.40638 
L 221.403554 302.1586 
L 222.344401 303.368453 
L 223.301951 304.849123 
L 224.239845 305.664631 
L 227.577317 306.987094 
L 229.024699 307.233705 
L 234.247924 307.507532 
L 238.479691 307.498619 
L 245.778862 307.206607 
L 247.055972 307.069243 
L 250.480228 306.473677 
L 257.061681 306.451847 
L 260.878001 306.836316 
L 263.788744 307.035343 
L 266.625263 307.189089 
L 271.418258 307.505006 
L 273.284926 307.553455 
L 273.284926 307.553455 
" style="fill:none;stroke:#ff00ff;stroke-linecap:square;stroke-width:1.5;"/>
   </g>
   <g id="line2d_33">
    <path clip-path="url(#pdd464f8f54)" d="M 57.6 112.302144 
L 61.888217 112.302144 
L 62.378242 179.10288 
L 62.845839 300.9528 
L 63.262298 305.69593 
L 63.753385 307.373997 
L 64.286585 307.470312 
L 64.747238 305.666915 
L 65.164026 297.430197 
L 66.121629 244.041754 
L 66.662659 280.745799 
L 67.107152 299.153347 
L 67.596571 305.53733 
L 68.086604 307.027681 
L 68.559363 307.363002 
L 69.50338 307.536778 
L 73.806075 307.559882 
L 83.816916 307.535939 
L 84.230869 307.110913 
L 84.736329 303.30242 
L 86.131478 282.349407 
L 86.624264 276.503282 
L 87.087075 269.130842 
L 87.579546 273.810959 
L 88.07044 280.980914 
L 89.987031 294.22876 
L 90.460457 295.781309 
L 90.92685 296.368239 
L 91.415355 296.091206 
L 91.877816 295.979429 
L 92.355946 295.676106 
L 92.827704 294.945202 
L 93.319866 293.750702 
L 94.261887 289.69215 
L 94.73004 286.995497 
L 95.691469 279.428652 
L 96.197877 272.730033 
L 96.684311 262.98254 
L 97.084524 249.153766 
L 97.633181 247.386245 
L 98.107624 290.576136 
L 98.538671 306.743219 
L 99.038427 307.344959 
L 99.981603 307.474989 
L 103.281641 307.47183 
L 107.593223 307.344297 
L 110.459253 306.549368 
L 110.933245 306.482456 
L 111.878791 305.954433 
L 112.837103 304.958097 
L 113.30606 304.358877 
L 114.28148 302.506229 
L 114.72602 301.458278 
L 115.630992 297.992241 
L 116.660322 291.303924 
L 117.527739 283.186591 
L 118.040725 292.622677 
L 118.562281 306.500271 
L 119.001873 307.307714 
L 119.99333 307.420432 
L 129.474604 307.442938 
L 136.629454 307.358571 
L 138.535714 307.006898 
L 140.450324 306.187902 
L 143.333775 304.647959 
L 144.31728 303.61578 
L 144.825919 302.689512 
L 145.112869 301.811621 
L 145.69161 300.879514 
L 146.637994 306.905773 
L 147.097177 307.28525 
L 148.605169 307.393298 
L 151.907079 307.389281 
L 152.808201 307.280203 
L 153.305513 307.128046 
L 153.767682 306.803603 
L 154.253886 306.143007 
L 154.724598 304.915608 
L 155.685145 301.902928 
L 156.149913 300.667221 
L 156.659509 299.636057 
L 157.08048 299.208736 
L 157.610847 299.049091 
L 158.595113 298.454453 
L 158.981295 298.352443 
L 159.489391 297.667226 
L 160.02576 296.221755 
L 160.422483 295.883049 
L 160.898415 297.79946 
L 161.40979 306.623303 
L 161.861922 307.248408 
L 163.292401 307.385714 
L 170.444927 307.376225 
L 171.397625 307.255313 
L 172.830217 306.739988 
L 174.267923 306.071319 
L 175.203982 305.26279 
L 176.650537 303.45909 
L 177.608847 302.267359 
L 178.103382 301.806037 
L 178.945911 300.665409 
L 181.442479 298.16204 
L 181.901305 298.94698 
L 182.344248 303.866237 
L 182.848984 306.951364 
L 183.31824 307.244298 
L 184.712235 307.38501 
L 190.932569 307.405988 
L 220.455261 307.352818 
L 223.301951 307.19946 
L 225.667734 307.138912 
L 227.577317 306.996935 
L 229.957454 306.8732 
L 232.830738 306.49266 
L 236.608066 305.768372 
L 237.120158 305.540138 
L 237.536056 305.226532 
L 238.087314 305.063081 
L 238.479691 305.31061 
L 239.042001 306.3613 
L 239.505197 306.812688 
L 240.456929 307.219629 
L 241.830674 307.369803 
L 245.098307 307.444219 
L 261.431726 307.407608 
L 268.062803 306.988758 
L 269.967849 306.525434 
L 272.828307 305.544635 
L 273.284926 305.363524 
L 273.284926 305.363524 
" style="fill:none;stroke:#008000;stroke-linecap:square;stroke-width:1.5;"/>
   </g>
   <g id="line2d_34">
    <path clip-path="url(#pdd464f8f54)" d="M 57.6 112.302144 
L 74.747266 112.390405 
L 77.0855 112.59681 
L 79.456972 113.069268 
L 81.827772 113.772637 
L 84.230869 114.731832 
L 88.07044 116.602649 
L 89.498825 117.528917 
L 90.92685 118.770523 
L 91.877816 119.831989 
L 92.827704 121.209272 
L 94.261887 123.864884 
L 96.684311 128.647903 
L 97.633181 129.857995 
L 98.538671 130.473666 
L 99.492948 130.667266 
L 100.455104 130.750806 
L 101.389995 131.060955 
L 102.346927 131.741101 
L 103.281641 132.820389 
L 108.048576 139.354206 
L 110.459253 142.252627 
L 111.415337 143.893729 
L 113.30606 147.936055 
L 114.28148 149.791955 
L 115.247355 151.175466 
L 116.253474 152.126831 
L 117.102506 152.66133 
L 118.040725 152.84939 
L 119.001873 152.976144 
L 120.940414 153.676855 
L 121.808456 154.26141 
L 123.387275 155.64274 
L 127.090078 159.394431 
L 128.549188 161.071562 
L 130.93245 164.43877 
L 132.829014 167.096291 
L 134.107431 168.571625 
L 138.05779 172.579392 
L 139.024877 174.043039 
L 140.450324 176.734696 
L 143.759488 183.079282 
L 144.825919 184.378164 
L 145.69161 184.891421 
L 147.097177 185.443548 
L 149.884543 186.886209 
L 151.907079 188.922151 
L 152.808201 189.947097 
L 154.253886 192.289971 
L 155.685145 194.979405 
L 156.149913 195.718088 
L 159.489391 199.467104 
L 160.422483 199.811685 
L 161.40979 199.864015 
L 163.292401 199.915942 
L 164.24186 200.336369 
L 165.233684 201.334693 
L 166.672208 203.27005 
L 170.912483 209.283389 
L 171.867937 211.053813 
L 173.310718 214.399991 
L 175.697436 220.534873 
L 176.650537 222.424228 
L 178.103382 224.585284 
L 178.945911 225.564661 
L 180.426932 227.001252 
L 181.442479 227.736494 
L 182.344248 228.139723 
L 186.190305 229.207404 
L 187.492948 229.882973 
L 187.492948 229.882973 
L 191.418144 232.166459 
L 192.787414 233.293298 
L 196.13257 236.012894 
L 197.211344 236.658524 
L 198.474872 237.09326 
L 200.319631 237.737143 
L 204.37308 239.411754 
L 205.629384 239.971062 
L 208.033311 240.644072 
L 209.019142 240.71443 
L 210.441882 240.733581 
L 211.412932 240.977623 
L 213.34053 241.814857 
L 214.812408 242.565831 
L 217.125582 243.913066 
L 219.04569 244.890419 
L 220.455261 245.839819 
L 222.847382 247.588022 
L 223.734454 248.08393 
L 225.667734 249.02252 
L 226.652321 249.977884 
L 227.577317 251.208507 
L 229.500213 253.839019 
L 231.887258 256.588409 
L 233.302553 258.204598 
L 234.733507 259.552374 
L 235.711097 260.165332 
L 236.608066 260.593034 
L 238.087314 260.987131 
L 241.408184 261.496124 
L 242.415458 261.509971 
L 247.563256 261.972565 
L 250.480228 261.574828 
L 251.928699 261.698191 
L 253.659887 261.700473 
L 257.625882 262.625784 
L 258.974511 263.157097 
L 261.854967 264.057977 
L 263.289406 264.65728 
L 264.73711 265.098782 
L 266.143746 265.911207 
L 267.080353 266.45744 
L 268.062803 266.891267 
L 271.418258 269.151515 
L 273.284926 270.219416 
L 273.284926 270.219416 
" style="fill:none;stroke:#ff0000;stroke-linecap:square;stroke-width:1.5;"/>
   </g>
   <g id="line2d_35">
    <path clip-path="url(#pdd464f8f54)" d="M 57.6 112.302144 
L 74.252801 112.410781 
L 83.816916 112.611231 
L 88.559538 112.89557 
L 90.460457 113.162898 
L 91.877816 113.576056 
L 92.827704 114.085835 
L 93.783661 114.925702 
L 94.73004 116.177427 
L 95.691469 117.899317 
L 97.633181 122.165968 
L 99.492948 126.048165 
L 100.930654 128.484946 
L 106.170987 136.32923 
L 108.567816 139.610497 
L 110.933245 142.650005 
L 111.878791 144.220512 
L 112.837103 146.492943 
L 113.775953 149.423226 
L 116.253474 157.683727 
L 117.527739 160.972758 
L 119.001873 164.059411 
L 120.482648 166.311573 
L 121.808456 167.875998 
L 123.387275 169.298005 
L 125.179542 170.593808 
L 128.09809 172.638396 
L 132.829014 176.068281 
L 136.185473 178.6256 
L 138.05779 180.445517 
L 139.507355 182.289877 
L 140.932935 184.555433 
L 145.112869 191.780892 
L 146.637994 193.755556 
L 148.104456 195.258444 
L 149.599421 196.475055 
L 155.197761 200.474937 
L 157.08048 202.393692 
L 160.02576 205.688986 
L 161.861922 207.327339 
L 163.773852 208.630922 
L 169.090886 211.90753 
L 171.867937 214.0119 
L 172.830217 215.015595 
L 173.78202 216.391698 
L 174.742577 218.239286 
L 178.481166 226.498251 
L 180.00134 228.931662 
L 181.442479 230.706615 
L 182.848984 231.988722 
L 184.255871 232.946127 
L 186.190305 233.911627 
L 195.639371 238.163854 
L 197.99053 239.307438 
L 200.319631 240.287509 
L 202.590288 240.996913 
L 202.590288 240.996913 
L 209.491179 242.483008 
L 212.37794 243.025175 
L 215.099134 243.819534 
L 219.985668 245.56252 
L 222.344401 246.632952 
L 225.667734 248.450704 
L 227.577317 249.793994 
L 229.500213 251.545528 
L 231.389806 253.521199 
L 235.711097 258.395605 
L 237.120158 259.556467 
L 238.479691 260.434663 
L 240.456929 261.422026 
L 242.415458 262.06977 
L 245.098307 262.697178 
L 248.508263 263.270228 
L 257.061681 264.417328 
L 262.337561 265.535791 
L 266.143746 266.572328 
L 269.014003 267.661272 
L 271.865174 269.095857 
L 273.284926 269.915129 
L 273.284926 269.915129 
" style="fill:none;stroke:#ffff00;stroke-linecap:square;stroke-width:1.5;"/>
   </g>
   <g id="line2d_36">
    <path clip-path="url(#pdd464f8f54)" d="M 57.6 112.302144 
L 151.008894 112.407809 
L 178.481166 112.930303 
L 191.844716 113.679404 
L 196.699565 114.483192 
L 199.399599 115.206006 
L 201.887549 116.130373 
L 203.212915 116.867312 
L 204.646681 117.667199 
L 206.274717 118.604141 
L 207.562668 119.239546 
L 208.541779 119.598678 
L 211.412932 120.189432 
L 213.765239 120.813315 
L 214.812408 121.285279 
L 216.150869 121.907568 
L 219.523908 123.198614 
L 228.064324 125.227031 
L 235.711097 126.325403 
L 242.908167 128.11661 
L 245.098307 128.888089 
L 247.055972 129.575783 
L 249.021939 129.991583 
L 250.480228 130.344434 
L 254.141566 131.6277 
L 256.110896 132.525448 
L 257.625882 133.158176 
L 260.515094 134.052442 
L 261.854967 134.44983 
L 264.288139 135.130487 
L 266.143746 135.557543 
L 273.284926 136.828219 
L 273.284926 136.828219 
" style="fill:none;stroke:#00ffff;stroke-linecap:square;stroke-width:1.5;"/>
   </g>
   <g id="line2d_37">
    <path clip-path="url(#pdd464f8f54)" d="M 57.6 112.302144 
L 60.462867 112.338331 
L 60.929012 112.521521 
L 62.845839 114.314255 
L 63.262298 115.126733 
L 63.753385 116.694079 
L 64.747238 121.782318 
L 65.729845 127.469262 
L 66.662659 131.35429 
L 68.559363 137.790703 
L 69.50338 142.605117 
L 71.869275 157.100768 
L 74.252801 172.335432 
L 74.747266 173.871928 
L 75.196891 173.441535 
L 75.680516 171.874567 
L 76.642651 167.781681 
L 77.0855 166.41505 
L 77.547464 165.973228 
L 78.033802 165.937661 
L 78.55158 166.167224 
L 79.050422 166.13485 
L 80.42581 166.700928 
L 81.827772 168.306844 
L 84.230869 171.222305 
L 85.234458 173.630702 
L 86.131478 176.628662 
L 87.579546 182.119577 
L 88.559538 187.449076 
L 89.498825 190.932761 
L 89.987031 192.114418 
L 90.460457 192.649531 
L 90.92685 192.76161 
L 91.415355 192.642132 
L 91.877816 192.660318 
L 92.355946 193.137087 
L 92.827704 194.266546 
L 93.783661 197.867839 
L 95.691469 206.480505 
L 96.684311 210.980217 
L 97.084524 212.333743 
L 97.633181 213.611968 
L 98.538671 214.769041 
L 99.492948 215.461234 
L 99.981603 216.140532 
L 100.930654 217.961535 
L 101.389995 218.427993 
L 101.895254 218.113726 
L 102.346927 217.253118 
L 103.822053 212.429308 
L 104.743459 209.17185 
L 105.259204 207.920914 
L 105.5567 207.518443 
L 106.170987 207.45127 
L 106.677838 207.923493 
L 107.097143 208.523182 
L 107.593223 209.858363 
L 108.048576 211.877507 
L 109.027496 219.720703 
L 109.983041 227.583562 
L 110.933245 232.846387 
L 111.415337 234.150855 
L 111.878791 234.479931 
L 112.363235 234.609763 
L 112.837103 235.234161 
L 113.30606 236.505967 
L 114.28148 240.975849 
L 115.247355 245.745649 
L 115.630992 247.299499 
L 116.660322 250.339654 
L 117.102506 251.137564 
L 117.527739 251.453972 
L 118.040725 251.161857 
L 119.485051 249.068694 
L 119.99333 248.538025 
L 120.940414 247.188909 
L 121.441582 246.797786 
L 121.808456 246.681617 
L 122.747277 246.611841 
L 126.218631 246.826669 
L 127.090078 247.279528 
L 128.09809 248.099975 
L 129.474604 249.483956 
L 129.973949 249.565612 
L 130.463893 249.406953 
L 130.93245 248.821731 
L 131.913919 246.68672 
L 132.400628 245.489439 
L 132.829014 244.774085 
L 133.203759 244.430042 
L 133.751994 244.315094 
L 134.107431 244.39145 
L 134.72511 244.814731 
L 135.152212 245.265309 
L 135.70436 246.341693 
L 136.629454 249.711175 
L 137.098437 251.446198 
L 137.611628 252.805088 
L 138.05779 253.567913 
L 138.535714 253.896837 
L 139.507355 253.800938 
L 139.989221 254.225888 
L 140.450324 255.301881 
L 140.932935 257.144326 
L 143.333775 268.775475 
L 143.759488 270.092442 
L 144.31728 271.342214 
L 144.825919 272.169273 
L 145.112869 272.422955 
L 145.69161 272.543708 
L 149.599421 270.189311 
L 149.884543 270.168548 
L 150.417407 270.405115 
L 151.386579 271.162324 
L 152.808201 272.80294 
L 154.253886 275.242663 
L 156.149913 278.743691 
L 158.595113 281.978228 
L 159.489391 282.887011 
L 160.02576 283.009675 
L 160.422483 282.930046 
L 160.898415 282.614973 
L 161.861922 281.405685 
L 164.24186 277.521741 
L 164.724434 277.072864 
L 165.233684 276.829846 
L 165.652162 276.78825 
L 169.974927 277.758579 
L 170.912483 278.158925 
L 171.397625 278.515921 
L 171.867937 279.12172 
L 172.344749 280.118258 
L 172.830217 281.556476 
L 173.78202 285.430882 
L 174.742577 289.397077 
L 175.697436 292.349496 
L 176.650537 294.321951 
L 177.608847 295.597513 
L 178.481166 296.422032 
L 179.558164 296.983851 
L 180.871262 297.412935 
L 181.442479 297.434365 
L 182.344248 297.150126 
L 183.31824 296.420978 
L 185.695936 294.458173 
L 187.492948 293.292107 
L 187.492948 293.292107 
L 189.954198 292.10556 
L 192.412191 291.030522 
L 193.69817 290.93893 
L 195.639371 291.166826 
L 197.211344 291.311502 
L 197.99053 291.216147 
L 203.212915 290.109252 
L 204.37308 290.077372 
L 205.629384 290.084313 
L 207.143653 289.716718 
L 208.033311 289.38832 
L 208.541779 288.984659 
L 209.019142 288.259956 
L 209.491179 287.076999 
L 210.441882 284.104255 
L 210.918531 283.536047 
L 211.412932 283.71064 
L 211.887449 284.324633 
L 212.861418 286.676135 
L 214.307811 290.800423 
L 214.812408 291.633195 
L 215.099134 291.857643 
L 215.703312 292.039926 
L 216.606482 291.8797 
L 218.111701 291.497495 
L 218.59361 291.178993 
L 219.523908 290.04121 
L 220.455261 288.267567 
L 221.403554 286.593606 
L 221.899148 286.157892 
L 222.344401 285.975924 
L 223.301951 285.969163 
L 225.235418 286.479004 
L 225.667734 286.700395 
L 226.158657 287.142575 
L 226.652321 287.812569 
L 227.098451 288.649365 
L 228.540024 291.805725 
L 230.453618 294.823456 
L 233.302553 300.468719 
L 234.247924 301.622585 
L 235.223124 302.364608 
L 236.143966 302.718812 
L 237.120158 302.855005 
L 240.456929 302.69609 
L 241.408184 302.532655 
L 242.908167 302.222783 
L 247.563256 301.649195 
L 250.480228 300.761768 
L 252.732666 300.438761 
L 254.141566 300.243843 
L 258.503389 300.220105 
L 261.854967 300.59988 
L 263.788744 301.08126 
L 265.216125 301.405932 
L 273.284926 304.430319 
L 273.284926 304.430319 
" style="fill:none;stroke:#ffa500;stroke-linecap:square;stroke-width:1.5;"/>
   </g>
   <g id="patch_3">
    <path d="M 57.6 307.584 
L 57.6 81.3888 
" style="fill:none;stroke:#000000;stroke-linecap:square;stroke-linejoin:miter;stroke-width:0.8;"/>
   </g>
   <g id="patch_4">
    <path d="M 414.72 307.584 
L 414.72 81.3888 
" style="fill:none;stroke:#000000;stroke-linecap:square;stroke-linejoin:miter;stroke-width:0.8;"/>
   </g>
   <g id="patch_5">
    <path d="M 57.6 307.584 
L 414.72 307.584 
" style="fill:none;stroke:#000000;stroke-linecap:square;stroke-linejoin:miter;stroke-width:0.8;"/>
   </g>
   <g id="patch_6">
    <path d="M 57.6 81.3888 
L 414.72 81.3888 
" style="fill:none;stroke:#000000;stroke-linecap:square;stroke-linejoin:miter;stroke-width:0.8;"/>
   </g>
   <g id="text_18">
    <!-- Fluidity CO2 -->
    <g transform="translate(199.55625 23.363904)scale(0.12 -0.12)">
     <defs>
      <path d="M 628 4666 
L 3309 4666 
L 3309 4134 
L 1259 4134 
L 1259 2759 
L 3109 2759 
L 3109 2228 
L 1259 2228 
L 1259 0 
L 628 0 
L 628 4666 
z
" id="DejaVuSans-46" transform="scale(0.015625)"/>
      <path d="M 603 4863 
L 1178 4863 
L 1178 0 
L 603 0 
L 603 4863 
z
" id="DejaVuSans-6c" transform="scale(0.015625)"/>
      <path d="M 544 1381 
L 544 3500 
L 1119 3500 
L 1119 1403 
Q 1119 906 1312 657 
Q 1506 409 1894 409 
Q 2359 409 2629 706 
Q 2900 1003 2900 1516 
L 2900 3500 
L 3475 3500 
L 3475 0 
L 2900 0 
L 2900 538 
Q 2691 219 2414 64 
Q 2138 -91 1772 -91 
Q 1169 -91 856 284 
Q 544 659 544 1381 
z
M 1991 3584 
L 1991 3584 
z
" id="DejaVuSans-75" transform="scale(0.015625)"/>
      <path d="M 2906 2969 
L 2906 4863 
L 3481 4863 
L 3481 0 
L 2906 0 
L 2906 525 
Q 2725 213 2448 61 
Q 2172 -91 1784 -91 
Q 1150 -91 751 415 
Q 353 922 353 1747 
Q 353 2572 751 3078 
Q 1150 3584 1784 3584 
Q 2172 3584 2448 3432 
Q 2725 3281 2906 2969 
z
M 947 1747 
Q 947 1113 1208 752 
Q 1469 391 1925 391 
Q 2381 391 2643 752 
Q 2906 1113 2906 1747 
Q 2906 2381 2643 2742 
Q 2381 3103 1925 3103 
Q 1469 3103 1208 2742 
Q 947 2381 947 1747 
z
" id="DejaVuSans-64" transform="scale(0.015625)"/>
      <path d="M 1172 4494 
L 1172 3500 
L 2356 3500 
L 2356 3053 
L 1172 3053 
L 1172 1153 
Q 1172 725 1289 603 
Q 1406 481 1766 481 
L 2356 481 
L 2356 0 
L 1766 0 
Q 1100 0 847 248 
Q 594 497 594 1153 
L 594 3053 
L 172 3053 
L 172 3500 
L 594 3500 
L 594 4494 
L 1172 4494 
z
" id="DejaVuSans-74" transform="scale(0.015625)"/>
      <path d="M 2059 -325 
Q 1816 -950 1584 -1140 
Q 1353 -1331 966 -1331 
L 506 -1331 
L 506 -850 
L 844 -850 
Q 1081 -850 1212 -737 
Q 1344 -625 1503 -206 
L 1606 56 
L 191 3500 
L 800 3500 
L 1894 763 
L 2988 3500 
L 3597 3500 
L 2059 -325 
z
" id="DejaVuSans-79" transform="scale(0.015625)"/>
     </defs>
     <use xlink:href="#DejaVuSans-46"/>
     <use x="57.519531" xlink:href="#DejaVuSans-6c"/>
     <use x="85.302734" xlink:href="#DejaVuSans-75"/>
     <use x="148.681641" xlink:href="#DejaVuSans-69"/>
     <use x="176.464844" xlink:href="#DejaVuSans-64"/>
     <use x="239.941406" xlink:href="#DejaVuSans-69"/>
     <use x="267.724609" xlink:href="#DejaVuSans-74"/>
     <use x="306.933594" xlink:href="#DejaVuSans-79"/>
     <use x="366.113281" xlink:href="#DejaVuSans-20"/>
     <use x="397.900391" xlink:href="#DejaVuSans-43"/>
     <use x="467.724609" xlink:href="#DejaVuSans-4f"/>
     <use x="546.435547" xlink:href="#DejaVuSans-32"/>
    </g>
   </g>
   <g id="legend_1">
    <g id="patch_7">
     <path d="M 61.308437 85.660231 
L 415.011562 85.660231 
Q 417.011562 85.660231 417.011562 83.660231 
L 417.011562 40.625856 
Q 417.011562 38.625856 415.011562 38.625856 
L 61.308437 38.625856 
Q 59.308437 38.625856 59.308437 40.625856 
L 59.308437 83.660231 
Q 59.308437 85.660231 61.308437 85.660231 
z
" style="fill:#4c4c4c;opacity:0.5;stroke:#4c4c4c;stroke-linejoin:miter;"/>
    </g>
    <g id="patch_8">
     <path d="M 59.308437 83.660231 
L 413.011562 83.660231 
Q 415.011562 83.660231 415.011562 81.660231 
L 415.011562 38.625856 
Q 415.011562 36.625856 413.011562 36.625856 
L 59.308437 36.625856 
Q 57.308437 36.625856 57.308437 38.625856 
L 57.308437 81.660231 
Q 57.308437 83.660231 59.308437 83.660231 
z
" style="fill:#ffffff;stroke:#cccccc;stroke-linejoin:miter;"/>
    </g>
    <g id="line2d_38">
     <path d="M 61.308437 44.724294 
L 81.308437 44.724294 
" style="fill:none;stroke:#000000;stroke-linecap:square;stroke-width:1.5;"/>
    </g>
    <g id="line2d_39"/>
    <g id="text_19">
     <!-- Sensor 1 (CFD) -->
     <g transform="translate(89.308437 48.224294)scale(0.1 -0.1)">
      <defs>
       <path d="M 3425 4513 
L 3425 3897 
Q 3066 4069 2747 4153 
Q 2428 4238 2131 4238 
Q 1616 4238 1336 4038 
Q 1056 3838 1056 3469 
Q 1056 3159 1242 3001 
Q 1428 2844 1947 2747 
L 2328 2669 
Q 3034 2534 3370 2195 
Q 3706 1856 3706 1288 
Q 3706 609 3251 259 
Q 2797 -91 1919 -91 
Q 1588 -91 1214 -16 
Q 841 59 441 206 
L 441 856 
Q 825 641 1194 531 
Q 1563 422 1919 422 
Q 2459 422 2753 634 
Q 3047 847 3047 1241 
Q 3047 1584 2836 1778 
Q 2625 1972 2144 2069 
L 1759 2144 
Q 1053 2284 737 2584 
Q 422 2884 422 3419 
Q 422 4038 858 4394 
Q 1294 4750 2059 4750 
Q 2388 4750 2728 4690 
Q 3069 4631 3425 4513 
z
" id="DejaVuSans-53" transform="scale(0.015625)"/>
       <path d="M 3513 2113 
L 3513 0 
L 2938 0 
L 2938 2094 
Q 2938 2591 2744 2837 
Q 2550 3084 2163 3084 
Q 1697 3084 1428 2787 
Q 1159 2491 1159 1978 
L 1159 0 
L 581 0 
L 581 3500 
L 1159 3500 
L 1159 2956 
Q 1366 3272 1645 3428 
Q 1925 3584 2291 3584 
Q 2894 3584 3203 3211 
Q 3513 2838 3513 2113 
z
" id="DejaVuSans-6e" transform="scale(0.015625)"/>
       <path d="M 1959 3097 
Q 1497 3097 1228 2736 
Q 959 2375 959 1747 
Q 959 1119 1226 758 
Q 1494 397 1959 397 
Q 2419 397 2687 759 
Q 2956 1122 2956 1747 
Q 2956 2369 2687 2733 
Q 2419 3097 1959 3097 
z
M 1959 3584 
Q 2709 3584 3137 3096 
Q 3566 2609 3566 1747 
Q 3566 888 3137 398 
Q 2709 -91 1959 -91 
Q 1206 -91 779 398 
Q 353 888 353 1747 
Q 353 2609 779 3096 
Q 1206 3584 1959 3584 
z
" id="DejaVuSans-6f" transform="scale(0.015625)"/>
       <path d="M 2631 2963 
Q 2534 3019 2420 3045 
Q 2306 3072 2169 3072 
Q 1681 3072 1420 2755 
Q 1159 2438 1159 1844 
L 1159 0 
L 581 0 
L 581 3500 
L 1159 3500 
L 1159 2956 
Q 1341 3275 1631 3429 
Q 1922 3584 2338 3584 
Q 2397 3584 2469 3576 
Q 2541 3569 2628 3553 
L 2631 2963 
z
" id="DejaVuSans-72" transform="scale(0.015625)"/>
       <path d="M 1259 4147 
L 1259 519 
L 2022 519 
Q 2988 519 3436 956 
Q 3884 1394 3884 2338 
Q 3884 3275 3436 3711 
Q 2988 4147 2022 4147 
L 1259 4147 
z
M 628 4666 
L 1925 4666 
Q 3281 4666 3915 4102 
Q 4550 3538 4550 2338 
Q 4550 1131 3912 565 
Q 3275 0 1925 0 
L 628 0 
L 628 4666 
z
" id="DejaVuSans-44" transform="scale(0.015625)"/>
      </defs>
      <use xlink:href="#DejaVuSans-53"/>
      <use x="63.476562" xlink:href="#DejaVuSans-65"/>
      <use x="125" xlink:href="#DejaVuSans-6e"/>
      <use x="188.378906" xlink:href="#DejaVuSans-73"/>
      <use x="240.478516" xlink:href="#DejaVuSans-6f"/>
      <use x="301.660156" xlink:href="#DejaVuSans-72"/>
      <use x="342.773438" xlink:href="#DejaVuSans-20"/>
      <use x="374.560547" xlink:href="#DejaVuSans-31"/>
      <use x="438.183594" xlink:href="#DejaVuSans-20"/>
      <use x="469.970703" xlink:href="#DejaVuSans-28"/>
      <use x="508.984375" xlink:href="#DejaVuSans-43"/>
      <use x="578.808594" xlink:href="#DejaVuSans-46"/>
      <use x="636.328125" xlink:href="#DejaVuSans-44"/>
      <use x="713.330078" xlink:href="#DejaVuSans-29"/>
     </g>
    </g>
    <g id="line2d_40">
     <path d="M 61.308437 59.402419 
L 81.308437 59.402419 
" style="fill:none;stroke:#ff00ff;stroke-linecap:square;stroke-width:1.5;"/>
    </g>
    <g id="line2d_41"/>
    <g id="text_20">
     <!-- Sensor 2 (CFD) -->
     <g transform="translate(89.308437 62.902419)scale(0.1 -0.1)">
      <use xlink:href="#DejaVuSans-53"/>
      <use x="63.476562" xlink:href="#DejaVuSans-65"/>
      <use x="125" xlink:href="#DejaVuSans-6e"/>
      <use x="188.378906" xlink:href="#DejaVuSans-73"/>
      <use x="240.478516" xlink:href="#DejaVuSans-6f"/>
      <use x="301.660156" xlink:href="#DejaVuSans-72"/>
      <use x="342.773438" xlink:href="#DejaVuSans-20"/>
      <use x="374.560547" xlink:href="#DejaVuSans-32"/>
      <use x="438.183594" xlink:href="#DejaVuSans-20"/>
      <use x="469.970703" xlink:href="#DejaVuSans-28"/>
      <use x="508.984375" xlink:href="#DejaVuSans-43"/>
      <use x="578.808594" xlink:href="#DejaVuSans-46"/>
      <use x="636.328125" xlink:href="#DejaVuSans-44"/>
      <use x="713.330078" xlink:href="#DejaVuSans-29"/>
     </g>
    </g>
    <g id="line2d_42">
     <path d="M 61.308437 74.080544 
L 81.308437 74.080544 
" style="fill:none;stroke:#008000;stroke-linecap:square;stroke-width:1.5;"/>
    </g>
    <g id="line2d_43"/>
    <g id="text_21">
     <!-- Sensor 3 (CFD) -->
     <g transform="translate(89.308437 77.580544)scale(0.1 -0.1)">
      <defs>
       <path d="M 2597 2516 
Q 3050 2419 3304 2112 
Q 3559 1806 3559 1356 
Q 3559 666 3084 287 
Q 2609 -91 1734 -91 
Q 1441 -91 1130 -33 
Q 819 25 488 141 
L 488 750 
Q 750 597 1062 519 
Q 1375 441 1716 441 
Q 2309 441 2620 675 
Q 2931 909 2931 1356 
Q 2931 1769 2642 2001 
Q 2353 2234 1838 2234 
L 1294 2234 
L 1294 2753 
L 1863 2753 
Q 2328 2753 2575 2939 
Q 2822 3125 2822 3475 
Q 2822 3834 2567 4026 
Q 2313 4219 1838 4219 
Q 1578 4219 1281 4162 
Q 984 4106 628 3988 
L 628 4550 
Q 988 4650 1302 4700 
Q 1616 4750 1894 4750 
Q 2613 4750 3031 4423 
Q 3450 4097 3450 3541 
Q 3450 3153 3228 2886 
Q 3006 2619 2597 2516 
z
" id="DejaVuSans-33" transform="scale(0.015625)"/>
      </defs>
      <use xlink:href="#DejaVuSans-53"/>
      <use x="63.476562" xlink:href="#DejaVuSans-65"/>
      <use x="125" xlink:href="#DejaVuSans-6e"/>
      <use x="188.378906" xlink:href="#DejaVuSans-73"/>
      <use x="240.478516" xlink:href="#DejaVuSans-6f"/>
      <use x="301.660156" xlink:href="#DejaVuSans-72"/>
      <use x="342.773438" xlink:href="#DejaVuSans-20"/>
      <use x="374.560547" xlink:href="#DejaVuSans-33"/>
      <use x="438.183594" xlink:href="#DejaVuSans-20"/>
      <use x="469.970703" xlink:href="#DejaVuSans-28"/>
      <use x="508.984375" xlink:href="#DejaVuSans-43"/>
      <use x="578.808594" xlink:href="#DejaVuSans-46"/>
      <use x="636.328125" xlink:href="#DejaVuSans-44"/>
      <use x="713.330078" xlink:href="#DejaVuSans-29"/>
     </g>
    </g>
    <g id="line2d_44">
     <path d="M 184.542812 44.724294 
L 204.542812 44.724294 
" style="fill:none;stroke:#ff0000;stroke-linecap:square;stroke-width:1.5;"/>
    </g>
    <g id="line2d_45"/>
    <g id="text_22">
     <!-- Sensor 4 (CFD) -->
     <g transform="translate(212.542812 48.224294)scale(0.1 -0.1)">
      <use xlink:href="#DejaVuSans-53"/>
      <use x="63.476562" xlink:href="#DejaVuSans-65"/>
      <use x="125" xlink:href="#DejaVuSans-6e"/>
      <use x="188.378906" xlink:href="#DejaVuSans-73"/>
      <use x="240.478516" xlink:href="#DejaVuSans-6f"/>
      <use x="301.660156" xlink:href="#DejaVuSans-72"/>
      <use x="342.773438" xlink:href="#DejaVuSans-20"/>
      <use x="374.560547" xlink:href="#DejaVuSans-34"/>
      <use x="438.183594" xlink:href="#DejaVuSans-20"/>
      <use x="469.970703" xlink:href="#DejaVuSans-28"/>
      <use x="508.984375" xlink:href="#DejaVuSans-43"/>
      <use x="578.808594" xlink:href="#DejaVuSans-46"/>
      <use x="636.328125" xlink:href="#DejaVuSans-44"/>
      <use x="713.330078" xlink:href="#DejaVuSans-29"/>
     </g>
    </g>
    <g id="line2d_46">
     <path d="M 184.542812 59.402419 
L 204.542812 59.402419 
" style="fill:none;stroke:#ffff00;stroke-linecap:square;stroke-width:1.5;"/>
    </g>
    <g id="line2d_47"/>
    <g id="text_23">
     <!-- Sensor 5 (CFD) -->
     <g transform="translate(212.542812 62.902419)scale(0.1 -0.1)">
      <defs>
       <path d="M 691 4666 
L 3169 4666 
L 3169 4134 
L 1269 4134 
L 1269 2991 
Q 1406 3038 1543 3061 
Q 1681 3084 1819 3084 
Q 2600 3084 3056 2656 
Q 3513 2228 3513 1497 
Q 3513 744 3044 326 
Q 2575 -91 1722 -91 
Q 1428 -91 1123 -41 
Q 819 9 494 109 
L 494 744 
Q 775 591 1075 516 
Q 1375 441 1709 441 
Q 2250 441 2565 725 
Q 2881 1009 2881 1497 
Q 2881 1984 2565 2268 
Q 2250 2553 1709 2553 
Q 1456 2553 1204 2497 
Q 953 2441 691 2322 
L 691 4666 
z
" id="DejaVuSans-35" transform="scale(0.015625)"/>
      </defs>
      <use xlink:href="#DejaVuSans-53"/>
      <use x="63.476562" xlink:href="#DejaVuSans-65"/>
      <use x="125" xlink:href="#DejaVuSans-6e"/>
      <use x="188.378906" xlink:href="#DejaVuSans-73"/>
      <use x="240.478516" xlink:href="#DejaVuSans-6f"/>
      <use x="301.660156" xlink:href="#DejaVuSans-72"/>
      <use x="342.773438" xlink:href="#DejaVuSans-20"/>
      <use x="374.560547" xlink:href="#DejaVuSans-35"/>
      <use x="438.183594" xlink:href="#DejaVuSans-20"/>
      <use x="469.970703" xlink:href="#DejaVuSans-28"/>
      <use x="508.984375" xlink:href="#DejaVuSans-43"/>
      <use x="578.808594" xlink:href="#DejaVuSans-46"/>
      <use x="636.328125" xlink:href="#DejaVuSans-44"/>
      <use x="713.330078" xlink:href="#DejaVuSans-29"/>
     </g>
    </g>
    <g id="line2d_48">
     <path d="M 307.777187 44.724294 
L 327.777187 44.724294 
" style="fill:none;stroke:#00ffff;stroke-linecap:square;stroke-width:1.5;"/>
    </g>
    <g id="line2d_49"/>
    <g id="text_24">
     <!-- Sensor 6 (CFD) -->
     <g transform="translate(335.777187 48.224294)scale(0.1 -0.1)">
      <use xlink:href="#DejaVuSans-53"/>
      <use x="63.476562" xlink:href="#DejaVuSans-65"/>
      <use x="125" xlink:href="#DejaVuSans-6e"/>
      <use x="188.378906" xlink:href="#DejaVuSans-73"/>
      <use x="240.478516" xlink:href="#DejaVuSans-6f"/>
      <use x="301.660156" xlink:href="#DejaVuSans-72"/>
      <use x="342.773438" xlink:href="#DejaVuSans-20"/>
      <use x="374.560547" xlink:href="#DejaVuSans-36"/>
      <use x="438.183594" xlink:href="#DejaVuSans-20"/>
      <use x="469.970703" xlink:href="#DejaVuSans-28"/>
      <use x="508.984375" xlink:href="#DejaVuSans-43"/>
      <use x="578.808594" xlink:href="#DejaVuSans-46"/>
      <use x="636.328125" xlink:href="#DejaVuSans-44"/>
      <use x="713.330078" xlink:href="#DejaVuSans-29"/>
     </g>
    </g>
    <g id="line2d_50">
     <path d="M 307.777187 59.402419 
L 327.777187 59.402419 
" style="fill:none;stroke:#ffa500;stroke-linecap:square;stroke-width:1.5;"/>
    </g>
    <g id="line2d_51"/>
    <g id="text_25">
     <!-- Sensor 7 (CFD) -->
     <g transform="translate(335.777187 62.902419)scale(0.1 -0.1)">
      <defs>
       <path d="M 525 4666 
L 3525 4666 
L 3525 4397 
L 1831 0 
L 1172 0 
L 2766 4134 
L 525 4134 
L 525 4666 
z
" id="DejaVuSans-37" transform="scale(0.015625)"/>
      </defs>
      <use xlink:href="#DejaVuSans-53"/>
      <use x="63.476562" xlink:href="#DejaVuSans-65"/>
      <use x="125" xlink:href="#DejaVuSans-6e"/>
      <use x="188.378906" xlink:href="#DejaVuSans-73"/>
      <use x="240.478516" xlink:href="#DejaVuSans-6f"/>
      <use x="301.660156" xlink:href="#DejaVuSans-72"/>
      <use x="342.773438" xlink:href="#DejaVuSans-20"/>
      <use x="374.560547" xlink:href="#DejaVuSans-37"/>
      <use x="438.183594" xlink:href="#DejaVuSans-20"/>
      <use x="469.970703" xlink:href="#DejaVuSans-28"/>
      <use x="508.984375" xlink:href="#DejaVuSans-43"/>
      <use x="578.808594" xlink:href="#DejaVuSans-46"/>
      <use x="636.328125" xlink:href="#DejaVuSans-44"/>
      <use x="713.330078" xlink:href="#DejaVuSans-29"/>
     </g>
    </g>
   </g>
  </g>
 </g>
 <defs>
  <clipPath id="pdd464f8f54">
   <rect height="226.1952" width="357.12" x="57.6" y="81.3888"/>
  </clipPath>
 </defs>
</svg>
